:FULLY-SPECIFIED
:FORCE-ALL-JOINTS-BE-3DOF
:DEGREES
2752
root -5.559 13.9753 -28.4071 1242 -65.4881 -161.137
lfemur -59.6177 42.9998 -6.60274
ltibia 67.8989 0 0
lfoot -2.43896 -1.56525 0
ltoes -31.5748 0 0
rfemur -30.8106 -18.7141 21.5963
rtibia 81.866 0 0
rfoot -35.2584 -24.75 0
rtoes -13.9333 0 0
lowerback 15.6667 5.79914 0.491115
upperback -4.01752 8.07856 1.4492
thorax -13.4247 3.78607 -0.844322
lowerneck -2.49027 9.60068 2.10698
upperneck 7.69873 12.5515 1.93281
head 2.89222 6.33604 0.677191
lclavicle -6.93634e-014 -1.82882e-014 0
lhumerus 3.65819 10.5334 84.1427
lradius 94.6518 0 0
lwrist -18.716 0 0
lhand -39.7287 388.035 0
lfingers 7.12502 0 0
lthumb -12.7062 -662.371 0
rclavicle -6.93634e-014 -1.82882e-014 0
rhumerus -57.8841 50.9998 -110.268
rradius 114.084 0 0
rwrist -84.7016 0 0
rhand 4.82202 -386.895 0
rfingers 7.12502 0 0
rthumb 30.2002 305.554 0
2753
root -5.56817 13.9642 -28.4139 162.047 -65.5103 -161.176
lfemur -59.7083 43.072 -6.63257
ltibia 68.0415 -0 0
lfoot -2.49551 -1.64443 -0.00026217
ltoes -31.6008 0 0
rfemur -30.8103 -18.7461 21.5675
rtibia 81.9731 -0 0
rfoot -35.3669 -24.7763 8.87938e-005
rtoes -13.9353 0 0
lowerback 15.6356 5.79698 0.468001
upperback -4.03155 8.07056 1.44565
thorax -13.4252 3.78437 -0.831004
lowerneck -2.48973 9.60091 2.10863
upperneck 7.71932 12.5514 1.93227
head 2.89928 6.33599 0.677581
lclavicle 5.48149e-014 -1.59028e-015 0
lhumerus 3.65077 10.5727 84.1397
lradius 94.6398 -0 0
lwrist -18.7527 0 0
lhand -39.7246 28.0255 7.88554e-006
lfingers 7.12502 -0 0
lthumb -12.7022 57.6198 7.3655e-006
rclavicle 5.48149e-014 -1.59028e-015 0
rhumerus -57.9021 50.9701 -110.285
rradius 114.082 -0 0
rwrist -84.6872 0 0
rhand 4.85129 -26.8741 -4.90824e-005
rfingers 7.12502 -0 0
rthumb 30.2281 -54.42 -5.97561e-005
2754
root -5.57734 13.9531 -28.4207 162.1 -65.5275 -161.222
lfemur -59.7963 43.1431 -6.65747
ltibia 68.1888 -0 0
lfoot -2.55611 -1.71327 -0.00052024
ltoes -31.6402 0 0
rfemur -30.8126 -18.7745 21.5376
rtibia 82.0849 -0 0
rfoot -35.4769 -24.8027 0.000154617
rtoes -13.9381 0 0
lowerback 15.605 5.79597 0.445414
upperback -4.04683 8.06434 1.44269
thorax -13.4275 3.78342 -0.817941
lowerneck -2.48876 9.60156 2.11012
upperneck 7.73806 12.5519 1.93129
head 2.90566 6.33625 0.677783
lclavicle 5.48149e-014 -1.59028e-015 0
lhumerus 3.63905 10.6135 84.1308
lradius 94.6346 -0 0
lwrist -18.7847 0 0
lhand -39.721 28.0166 1.45861e-005
lfingers 7.12502 -0 0
lthumb -12.6987 57.6111 1.36173e-005
rclavicle 5.48149e-014 -1.59028e-015 0
rhumerus -57.9205 50.9451 -110.302
rradius 114.08 -0 0
rwrist -84.6722 0 0
rhand 4.87865 -26.8539 -9.52126e-005
rfingers 7.12502 -0 0
rthumb 30.2542 -54.395 -0.000117556
2755
root -5.58651 13.942 -28.4276 162.157 -65.54 -161.273
lfemur -59.8818 43.2131 -6.67773
ltibia 68.3404 -0 0
lfoot -2.62031 -1.77271 -0.000767346
ltoes -31.6913 0 0
rfemur -30.8171 -18.7994 21.5067
rtibia 82.2009 -0 0
rfoot -35.5881 -24.8292 0.000199872
rtoes -13.9416 0 0
lowerback 15.5749 5.79598 0.423368
upperback -4.0632 8.05974 1.4403
thorax -13.4314 3.78316 -0.80512
lowerneck -2.48742 9.60259 2.11146
upperneck 7.75516 12.553 1.92993
head 2.91143 6.33681 0.67782
lclavicle 5.48149e-014 -1.59028e-015 0
lhumerus 3.62346 10.6556 84.1166
lradius 94.6355 -0 0
lwrist -18.8123 0 0
lhand -39.7178 28.0083 2.00637e-005
lfingers 7.12502 -0 0
lthumb -12.6957 57.603 1.87217e-005
rclavicle 5.48149e-014 -1.59028e-015 0
rhumerus -57.9393 50.9243 -110.319
rradius 114.077 -0 0
rwrist -84.6568 0 0
rhand 4.90431 -26.8342 -0.0001372
rfingers 7.12502 -0 0
rthumb 30.2787 -54.3709 -0.000171615
2756
root -5.59568 13.931 -28.4344 162.217 -65.5484 -161.328
lfemur -59.9648 43.282 -6.6936
ltibia 68.4956 -0 0
lfoot -2.68767 -1.8237 -0.000995912
ltoes -31.7527 0 0
rfemur -30.8235 -18.8212 21.4751
rtibia 82.3206 -0 0
rfoot -35.7003 -24.8559 0.00022691
rtoes -13.9456 0 0
lowerback 15.5453 5.79692 0.401878
upperback -4.08052 8.0566 1.43844
thorax -13.4367 3.78351 -0.792532
lowerneck -2.48576 9.60398 2.11265
upperneck 7.77083 12.5547 1.92821
head 2.91667 6.33764 0.677713
lclavicle 5.48149e-014 -1.59028e-015 0
lhumerus 3.60445 10.6987 84.0976
lradius 94.6418 -0 0
lwrist -18.8359 0 0
lhand -39.7152 28.0006 2.43124e-005
lfingers 7.12502 -0 0
lthumb -12.6931 57.5954 2.26744e-005
rclavicle 5.48149e-014 -1.59028e-015 0
rhumerus -57.9585 50.9073 -110.335
rradius 114.075 -0 0
rwrist -84.6409 0 0
rhand 4.92848 -26.8152 -0.000174092
rfingers 7.12502 -0 0
rthumb 30.3018 -54.3477 -0.000220464
2757
root -5.60485 13.9199 -28.4412 162.281 -65.553 -161.387
lfemur -60.0456 43.3498 -6.70537
ltibia 68.6541 -0 0
lfoot -2.75775 -1.86719 -0.00119828
ltoes -31.8231 0 0
rfemur -30.8316 -18.84 21.4429
rtibia 82.4435 -0 0
rfoot -35.8133 -24.8829 0.000238033
rtoes -13.95 0 0
lowerback 15.5163 5.79866 0.380957
upperback -4.09863 8.05477 1.43708
thorax -13.4432 3.78441 -0.780166
lowerneck -2.48382 9.60568 2.1137
upperneck 7.78529 12.5569 1.9262
head 2.92146 6.33869 0.677488
lclavicle 5.48149e-014 -1.59028e-015 0
lhumerus 3.58247 10.7428 84.0746
lradius 94.653 -0 0
lwrist -18.8558 0 0
lhand -39.7129 27.9934 2.73545e-005
lfingers 7.12502 -0 0
lthumb -12.6909 57.5883 2.54972e-005
rclavicle 5.48149e-014 -1.59028e-015 0
rhumerus -57.9779 50.8937 -110.352
rradius 114.073 -0 0
rwrist -84.6248 0 0
rhand 4.95138 -26.7966 -0.000205158
rfingers 7.12502 -0 0
rthumb 30.3236 -54.3251 -0.00026293
2758
root -5.61402 13.9088 -28.448 162.347 -65.5542 -161.45
lfemur -60.1241 43.4165 -6.7133
ltibia 68.8152 -0 0
lfoot -2.83009 -1.90412 -0.00136725
ltoes -31.9008 0 0
rfemur -30.8411 -18.8562 21.4103
rtibia 82.5691 -0 0
rfoot -35.9269 -24.9102 0.000235484
rtoes -13.9548 0 0
lowerback 15.4877 5.80111 0.36062
upperback -4.11737 8.0541 1.4362
thorax -13.4508 3.78579 -0.768011
lowerneck -2.48165 9.60765 2.11462
upperneck 7.79874 12.5595 1.92394
head 2.92587 6.33996 0.677165
lclavicle 5.48149e-014 -1.59028e-015 0
lhumerus 3.55797 10.7876 84.048
lradius 94.6683 -0 0
lwrist -18.8725 0 0
lhand -39.7109 27.9866 2.92377e-005
lfingers 7.12502 -0 0
lthumb -12.6891 57.5817 2.72355e-005
rclavicle 5.48149e-014 -1.59028e-015 0
rhumerus -57.9977 50.8832 -110.369
rradius 114.071 -0 0
rwrist -84.6084 0 0
rhand 4.97321 -26.7786 -0.000229874
rfingers 7.12502 -0 0
rthumb 30.3444 -54.3033 -0.000298104
2759
root -5.62319 13.8977 -28.4548 162.414 -65.5526 -161.514
lfemur -60.2006 43.4822 -6.71769
ltibia 68.9784 -0 0
lfoot -2.90427 -1.93545 -0.00149658
ltoes -31.9845 0 0
rfemur -30.8518 -18.87 21.3776
rtibia 82.697 -0 0
rfoot -36.0409 -24.9379 0.00022146
rtoes -13.9598 0 0
lowerback 15.4598 5.80414 0.340882
upperback -4.13662 8.05442 1.43577
thorax -13.4593 3.78758 -0.756057
lowerneck -2.4793 9.60986 2.1154
upperneck 7.81139 12.5625 1.92147
head 2.92998 6.3414 0.67677
lclavicle 5.48149e-014 -1.59028e-015 0
lhumerus 3.53141 10.8329 84.0185
lradius 94.6871 -0 0
lwrist -18.8861 0 0
lhand -39.7093 27.9804 3.0032e-005
lfingers 7.12502 -0 0
lthumb -12.6875 57.5755 2.79555e-005
rclavicle 5.48149e-014 -1.59028e-015 0
rhumerus -58.0176 50.8753 -110.386
rradius 114.069 -0 0
rwrist -84.5919 0 0
rhand 4.99418 -26.761 -0.000247912
rfingers 7.12502 -0 0
rthumb 30.3644 -54.282 -0.000325329
2760
root -5.63236 13.8866 -28.4617 162.483 -65.5484 -161.581
lfemur -60.2751 43.5469 -6.71879
ltibia 69.1434 -0 0
lfoot -2.97983 -1.96212 -0.00158137
ltoes -32.0726 0 0
rfemur -30.8632 -18.8816 21.345
rtibia 82.8265 -0 0
rfoot -36.1551 -24.966 0.000198105
rtoes -13.9649 0 0
lowerback 15.4323 5.80765 0.321756
upperback -4.1562 8.05559 1.43575
thorax -13.4684 3.7897 -0.744291
lowerneck -2.47682 9.61228 2.11605
upperneck 7.82344 12.5658 1.91885
head 2.93387 6.34299 0.676324
lclavicle 5.48149e-014 -1.59028e-015 0
lhumerus 3.50322 10.8786 83.9867
lradius 94.7086 -0 0
lwrist -18.8972 0 0
lhand -39.7079 27.9745 2.98271e-005
lfingers 7.12502 -0 0
lthumb -12.6861 57.5697 2.77416e-005
rclavicle 5.48149e-014 -1.59028e-015 0
rhumerus -58.0376 50.8697 -110.403
rradius 114.067 -0 0
rwrist -84.5754 0 0
rhand 5.0145 -26.7438 -0.000259122
rfingers 7.12502 -0 0
rthumb 30.3838 -54.2612 -0.000344182
2761
root -5.64153 13.8755 -28.4685 162.552 -65.5422 -161.648
lfemur -60.3478 43.6105 -6.7169
ltibia 69.3095 -0 0
lfoot -3.05633 -1.98507 -0.00161839
ltoes -32.1638 0 0
rfemur -30.8753 -18.8913 21.3126
rtibia 82.9573 -0 0
rfoot -36.2693 -24.9947 0.000167523
rtoes -13.9701 0 0
lowerback 15.4055 5.81152 0.303259
upperback -4.17597 8.05745 1.43613
thorax -13.4781 3.79209 -0.732705
lowerneck -2.47426 9.61486 2.11658
upperneck 7.83512 12.5693 1.91611
head 2.93762 6.3447 0.675851
lclavicle 5.48149e-014 -1.59028e-015 0
lhumerus 3.47387 10.9245 83.9532
lradius 94.7323 -0 0
lwrist -18.9061 0 0
lhand -39.7067 27.9691 2.87298e-005
lfingers 7.12502 -0 0
lthumb -12.685 57.5644 2.66944e-005
rclavicle 5.48149e-014 -1.59028e-015 0
rhumerus -58.0578 50.8659 -110.42
rradius 114.065 -0 0
rwrist -84.559 0 0
rhand 5.03437 -26.7269 -0.000263526
rfingers 7.12502 -0 0
rthumb 30.4028 -54.2409 -0.000354453
2762
root -5.6507 13.8644 -28.4753 162.621 -65.5344 -161.716
lfemur -60.4188 43.6731 -6.71228
ltibia 69.4762 -0 0
lfoot -3.13332 -2.00526 -0.00160637
ltoes -32.2565 0 0
rfemur -30.8876 -18.8993 21.2806
rtibia 83.0887 -0 0
rfoot -36.3832 -25.0239 0.000131786
rtoes -13.9751 0 0
lowerback 15.3792 5.81565 0.285404
upperback -4.19578 8.05984 1.43686
thorax -13.4882 3.79468 -0.721287
lowerneck -2.47166 9.61757 2.11699
upperneck 7.84662 12.5731 1.91331
head 2.9413 6.34649 0.675373
lclavicle 5.48149e-014 -1.59028e-015 0
lhumerus 3.44381 10.9704 83.9186
lradius 94.7574 -0 0
lwrist -18.9131 0 0
lhand -39.7056 27.9641 2.68618e-005
lfingers 7.12502 -0 0
lthumb -12.684 57.5594 2.49284e-005
rclavicle 5.48149e-014 -1.59028e-015 0
rhumerus -58.0781 50.8635 -110.436
rradius 114.063 -0 0
rwrist -84.5428 0 0
rhand 5.05402 -26.7104 -0.00026131
rfingers 7.12502 -0 0
rthumb 30.4215 -54.2209 -0.00035614
2763
root -5.65988 13.8534 -28.4821 162.689 -65.5254 -161.783
lfemur -60.4882 43.7347 -6.70524
ltibia 69.643 -0 0
lfoot -3.21037 -2.02363 -0.00154615
ltoes -32.3493 0 0
rfemur -30.8999 -18.9058 21.2493
rtibia 83.2204 -0 0
rfoot -36.4967 -25.0537 9.29394e-005
rtoes -13.98 0 0
lowerback 15.3536 5.81992 0.268208
upperback -4.21548 8.06262 1.43792
thorax -13.4984 3.7974 -0.710026
lowerneck -2.46908 9.62038 2.11728
upperneck 7.85816 12.577 1.91049
head 2.94499 6.34835 0.674914
lclavicle 5.48149e-014 -1.59028e-015 0
lhumerus 3.41349 11.0161 83.8835
lradius 94.7834 -0 0
lwrist -18.9186 0 0
lhand -39.7047 27.9595 2.43576e-005
lfingers 7.12502 -0 0
lthumb -12.6831 57.5548 2.25701e-005
rclavicle 5.48149e-014 -1.59028e-015 0
rhumerus -58.0983 50.8622 -110.453
rradius 114.06 -0 0
rwrist -84.5268 0 0
rhand 5.07364 -26.6942 -0.000252811
rfingers 7.12502 -0 0
rthumb 30.4402 -54.2012 -0.000349439
2764
root -5.66905 13.8423 -28.4889 162.756 -65.5156 -161.849
lfemur -60.5561 43.7952 -6.69604
ltibia 69.8095 -0 0
lfoot -3.28703 -2.04113 -0.0014408
ltoes -32.4407 0 0
rfemur -30.9119 -18.9112 21.2188
rtibia 83.3517 -0 0
rfoot -36.6095 -25.0842 5.30214e-005
rtoes -13.9846 0 0
lowerback 15.3285 5.82423 0.251684
upperback -4.23491 8.06561 1.43929
thorax -13.5087 3.80017 -0.698911
lowerneck -2.46655 9.62325 2.11747
upperneck 7.86995 12.5809 1.90769
head 2.94878 6.35025 0.674497
lclavicle 5.48149e-014 -1.59028e-015 0
lhumerus 3.38337 11.0615 83.8486
lradius 94.8095 -0 0
lwrist -18.923 0 0
lhand -39.7038 27.9551 2.13625e-005
lfingers 7.12502 -0 0
lthumb -12.6822 57.5505 1.97564e-005
rclavicle 5.48149e-014 -1.59028e-015 0
rhumerus -58.1185 50.8615 -110.47
rradius 114.058 -0 0
rwrist -84.5112 0 0
rhand 5.09346 -26.6782 -0.000238517
rfingers 7.12502 -0 0
rthumb 30.4591 -54.1817 -0.000334733
